<svg width="417" height="483" viewBox="0 0 417 483" fill="none" xmlns="http://www.w3.org/2000/svg">
<path fill-rule="evenodd" clip-rule="evenodd" d="M208.301 0.156975L214.339 178.813C214.829 193.305 220.021 207.049 228.879 217.304C237.736 227.559 249.609 233.57 262.125 234.137L416.445 241.126L262.125 248.117C249.609 248.684 237.736 254.695 228.879 264.95C220.021 275.204 214.829 288.949 214.339 303.44L208.301 482.096L202.263 303.44C201.773 288.949 196.581 275.204 187.724 264.95C178.866 254.695 166.994 248.684 154.476 248.117L0.156738 241.126L154.476 234.137C166.994 233.57 178.866 227.559 187.724 217.304C196.581 207.049 201.773 193.305 202.263 178.813L208.301 0.156975Z" fill="#fff" stroke="black" stroke-width="0" stroke-miterlimit="1.5" stroke-linecap="round" stroke-linejoin="round"/>
</svg>
