<?xml version="1.0" encoding="UTF-8" standalone="no"?><!DOCTYPE svg PUBLIC "-//W3C//DTD SVG 1.1//EN" "http://www.w3.org/Graphics/SVG/1.1/DTD/svg11.dtd"><svg width="100%" height="100%" viewBox="0 0 2250 2250" version="1.1" xmlns="http://www.w3.org/2000/svg" xmlns:xlink="http://www.w3.org/1999/xlink" xml:space="preserve" xmlns:serif="http://www.serif.com/" style="fill-rule:evenodd;clip-rule:evenodd;stroke-linejoin:round;stroke-miterlimit:2;"><path d="M1125,2250l-1125,-2250l140.625,0l984.375,1968.75l914.062,-1828.12l-562.5,0l70.313,-140.625l703.125,0l-1125,2250Z" style="fill:#ba8859;"/><path d="M1054.69,1265.62l70.313,-140.625l140.625,0l70.312,-140.625l-281.25,0l70.313,-140.625l281.25,0l70.312,-140.625l-281.25,0l70.313,-140.625l281.25,0l70.312,-140.625l-281.25,0l70.313,-140.625l421.875,0l-703.125,1406.25l-843.75,-1687.5l421.875,0l70.312,140.625l-281.25,0l210.938,421.875l281.25,0l70.312,140.625l-281.25,0l351.563,703.125l70.312,-140.625l-140.625,0Z" style="fill:#ba8859;"/><path d="M703.125,281.25l140.625,-0l70.312,140.625l-140.625,0l-70.312,-140.625Z" style="fill:#ba8859;"/><path d="M1125,2250l0,-2250" style="fill:none;"/><path d="M1125,347.03l173.515,-347.03l-347.03,0l173.515,347.03Z" style="fill:#f00;"/></svg>